<?xml version="1.0" standalone="no"?>
<!DOCTYPE svg PUBLIC "-//W3C//DTD SVG 20010904//EN"
 "http://www.w3.org/TR/2001/REC-SVG-20010904/DTD/svg10.dtd">
<svg version="1.0" xmlns="http://www.w3.org/2000/svg"
 width="500.000000pt" height="500.000000pt" viewBox="0 0 500.000000 500.000000"
 preserveAspectRatio="xMidYMid meet">

<g transform="translate(0.000000,500.000000) scale(0.100000,-0.100000)"
fill="#000000" stroke="none">
<path d="M655 3190 c-178 -24 -349 -146 -433 -309 -66 -128 -67 -136 -67 -626
l0 -440 180 0 180 0 5 425 c5 466 4 457 68 523 94 97 258 81 338 -34 l29 -42
5 -436 5 -436 183 -3 182 -2 0 405 c0 278 4 421 12 453 8 33 25 60 58 93 99
99 254 86 334 -29 26 -37 31 -54 34 -115 3 -60 0 -79 -20 -116 -32 -60 -89
-99 -169 -114 l-66 -12 39 -135 c21 -74 55 -193 75 -265 20 -71 40 -138 45
-147 8 -16 27 -18 188 -18 145 0 180 3 180 14 0 7 -21 86 -46 175 l-46 161 52
62 c97 116 140 234 140 388 0 161 -57 297 -173 413 -191 192 -496 228 -723 85
-56 -36 -131 -113 -154 -159 -11 -20 -24 -40 -30 -44 -17 -10 -11 52 11 117
24 71 30 62 -86 118 -56 28 -103 42 -158 50 -86 11 -85 11 -172 0z"/>
<path d="M2280 2760 l0 -200 45 0 44 0 3 123 3 122 45 -120 46 -120 35 -3 36
-3 44 120 c24 67 47 121 52 121 4 0 7 -54 7 -120 l0 -120 45 0 45 0 0 200 0
201 -57 -3 -57 -3 -55 -138 c-30 -75 -58 -134 -62 -130 -4 5 -31 68 -60 141
l-53 132 -53 0 -53 0 0 -200z"/>
<path d="M2820 2760 l0 -200 40 0 40 0 0 200 0 200 -40 0 -40 0 0 -200z"/>
<path d="M3000 2760 l0 -200 40 0 40 0 0 125 c0 69 3 125 8 125 4 0 44 -57 90
-125 l82 -125 45 0 45 0 0 200 0 200 -45 0 -44 0 -3 -127 -3 -128 -84 128 -85
127 -43 0 -43 0 0 -200z"/>
<path d="M3440 2760 l0 -200 40 0 40 0 0 85 0 85 85 0 85 0 0 -85 0 -85 45 0
45 0 0 200 0 200 -45 0 -45 0 0 -80 0 -80 -85 0 -85 0 0 80 0 80 -40 0 -40 0
0 -200z"/>
<path d="M3915 2769 c-39 -106 -72 -196 -74 -201 -1 -5 18 -8 45 -6 44 3 48 5
59 38 l12 35 77 3 77 3 16 -41 c15 -38 18 -40 60 -40 23 0 43 3 43 8 0 4 -31
93 -69 197 l-69 190 -54 3 -54 3 -69 -192z m154 12 c11 -36 21 -69 21 -73 0
-4 -25 -8 -56 -8 -41 0 -55 3 -52 13 3 6 15 43 28 80 12 38 26 65 30 60 4 -4
17 -37 29 -72z"/>
<path d="M2280 2110 l0 -200 45 0 45 0 0 80 c0 63 3 80 14 80 8 0 34 -36 57
-80 l43 -80 48 0 c26 0 48 2 48 4 0 2 -20 38 -45 80 l-45 76 30 15 c59 30 79
119 38 170 -33 42 -76 55 -183 55 l-95 0 0 -200z m188 114 c24 -17 30 -62 10
-82 -7 -7 -34 -12 -60 -12 l-48 0 0 55 0 55 38 0 c21 0 48 -7 60 -16z"/>
<path d="M2660 2110 l0 -200 120 0 120 0 0 35 0 35 -75 0 -75 0 0 50 0 50 65
0 65 0 0 35 0 35 -65 0 -65 0 0 45 0 45 75 0 75 0 0 35 0 35 -120 0 -120 0 0
-200z"/>
<path d="M3023 2290 c-44 -26 -61 -82 -40 -132 15 -36 22 -40 127 -82 49 -19
55 -24 55 -50 0 -16 -7 -33 -16 -39 -23 -14 -70 0 -76 23 -4 16 -14 20 -54 20
-53 0 -57 -6 -33 -51 19 -37 83 -68 139 -69 112 0 185 121 114 186 -11 11 -53
33 -92 49 -62 26 -72 34 -75 58 -3 21 2 29 19 36 31 11 61 2 66 -21 4 -14 15
-18 54 -18 28 0 49 5 49 10 0 25 -32 71 -60 85 -42 22 -137 20 -177 -5z"/>
<path d="M3350 2110 l0 -200 115 0 115 0 0 35 0 34 -72 3 -73 3 -3 48 -3 47
70 0 71 0 0 35 0 35 -70 0 -70 0 0 45 0 45 75 0 75 0 0 35 0 35 -115 0 -115 0
0 -200z"/>
<path d="M3670 2110 l0 -200 40 0 39 0 3 77 c4 107 20 107 76 3 l43 -80 50 0
c28 0 48 3 46 8 -2 4 -23 40 -47 80 -23 40 -41 74 -39 75 2 2 16 8 30 16 39
19 62 66 56 113 -11 80 -63 108 -202 108 l-95 0 0 -200z m188 114 c12 -8 22
-26 22 -39 0 -38 -26 -55 -81 -55 l-49 0 0 48 c0 27 3 52 7 55 12 13 79 7 101
-9z"/>
<path d="M4056 2213 c20 -54 51 -144 71 -200 l35 -103 58 0 58 0 35 103 c20
56 51 146 71 200 l35 97 -47 0 -48 0 -49 -150 c-27 -82 -52 -150 -55 -150 -3
0 -28 68 -55 150 l-49 150 -48 0 -47 0 35 -97z"/>
<path d="M4595 2298 c-39 -103 -135 -374 -135 -380 0 -4 20 -8 45 -8 43 0 45
1 56 40 l12 40 78 0 78 0 12 -40 c12 -39 13 -40 60 -40 l49 0 -46 128 c-25 70
-57 160 -72 200 l-26 72 -53 0 c-34 0 -55 -5 -58 -12z m62 -246 c-27 -2 -51
-1 -54 2 -5 4 33 129 45 150 3 6 18 -26 32 -70 l27 -79 -50 -3z"/>
</g>
</svg>
